<svg xmlns="http://www.w3.org/2000/svg" xmlns:xlink="http://www.w3.org/1999/xlink" width="1920" zoomAndPan="magnify" viewBox="0 0 1440 1439.999935" height="1920" preserveAspectRatio="xMidYMid meet" version="1.0"><path fill="#caddff" d="M 49.347656 1112.636719 C 89.667969 1211.507812 183.917969 1258.269531 244.15625 1288.164062 C 481.59375 1405.972656 978.855469 1439.582031 1230.800781 1258.367188 C 1360.003906 1165.441406 1447.222656 889.53125 1377.519531 532.769531 C 1315.890625 217.382812 1024.242188 44.832031 763.105469 20.515625 C 546.769531 0.371094 260.882812 75.128906 161.027344 267.535156 C 98.230469 388.523438 179.640625 397.316406 128.273438 671.460938 C 83.816406 908.742188 0.0234375 991.707031 49.347656 1112.636719 " fill-opacity="1" fill-rule="nonzero"/><path fill="#0065ff" d="M 39.136719 1228.566406 L 646.078125 1228.566406 C 693.253906 1228.566406 738.496094 1209.675781 771.859375 1176.039062 C 805.210938 1142.410156 850.441406 1123.511719 897.621094 1123.511719 L 1334.8125 1123.511719 C 1306.355469 1183.808594 1270.574219 1229.765625 1230.808594 1258.367188 C 1101.097656 1351.664062 906.359375 1388.023438 715.527344 1385.257812 L 38.179688 1385.257812 L 39.136719 1228.566406 " fill-opacity="1" fill-rule="nonzero"/><path fill="#ffffff" d="M 193.710938 216.628906 L 193.710938 1259.242188 C 207.132812 1267.554688 221.210938 1275.726562 235.910156 1283.683594 L 235.910156 170.859375 C 220.515625 185.074219 206.371094 200.320312 193.710938 216.628906 " fill-opacity="1" fill-rule="nonzero"/><path fill="#ffffff" d="M 470.269531 47.710938 C 459.785156 50.65625 449.378906 53.804688 439.078125 57.179688 L 439.078125 433.386719 L 470.269531 433.386719 L 470.269531 47.710938 " fill-opacity="1" fill-rule="nonzero"/><path fill="#ffffff" d="M 581.492188 372.019531 L 581.492188 24.894531 C 571.273438 26.269531 561.042969 27.851562 550.832031 29.609375 L 550.832031 366.800781 C 550.832031 395.007812 528.152344 417.886719 500.179688 417.886719 L 220.726562 417.886719 L 220.726562 448.792969 L 505.355469 448.792969 C 547.402344 448.792969 581.492188 414.421875 581.492188 372.019531 " fill-opacity="1" fill-rule="nonzero"/><path fill="#ffffff" d="M 439.175781 221.605469 L 505.410156 221.605469 L 505.410156 198.839844 L 439.175781 198.839844 L 439.175781 221.605469 " fill-opacity="1" fill-rule="nonzero"/><path fill="#ffffff" d="M 423.433594 246.445312 L 484.023438 246.445312 L 484.023438 174.015625 L 423.433594 174.015625 L 423.433594 246.445312 " fill-opacity="1" fill-rule="nonzero"/><path fill="#0065ff" d="M 520.40625 245.148438 L 520.40625 174.441406 L 501.695312 174.441406 L 501.695312 245.148438 L 520.40625 245.148438 " fill-opacity="1" fill-rule="nonzero"/><path fill="#0065ff" d="M 484.023438 248.910156 L 423.4375 248.910156 C 422.070312 248.910156 420.960938 247.8125 420.960938 246.445312 C 420.960938 245.074219 422.070312 243.964844 423.4375 243.964844 L 484.023438 243.964844 C 485.390625 243.964844 486.496094 245.074219 486.496094 246.445312 C 486.496094 247.8125 485.390625 248.910156 484.023438 248.910156 " fill-opacity="1" fill-rule="nonzero"/><path fill="#ffffff" d="M 554.808594 221.605469 L 621.039062 221.605469 L 621.039062 198.839844 L 554.808594 198.839844 L 554.808594 221.605469 " fill-opacity="1" fill-rule="nonzero"/><path fill="#ffffff" d="M 539.066406 246.445312 L 599.65625 246.445312 L 599.65625 174.015625 L 539.066406 174.015625 L 539.066406 246.445312 " fill-opacity="1" fill-rule="nonzero"/><path fill="#0065ff" d="M 636.039062 245.148438 L 636.039062 174.441406 L 617.328125 174.441406 L 617.328125 245.148438 L 636.039062 245.148438 " fill-opacity="1" fill-rule="nonzero"/><path fill="#0065ff" d="M 599.660156 248.910156 L 539.070312 248.910156 C 537.703125 248.910156 536.597656 247.8125 536.597656 246.445312 C 536.597656 245.074219 537.703125 243.964844 539.070312 243.964844 L 599.660156 243.964844 C 601.027344 243.964844 602.132812 245.074219 602.132812 246.445312 C 602.132812 247.8125 601.027344 248.910156 599.660156 248.910156 " fill-opacity="1" fill-rule="nonzero"/><path fill="#ffffff" d="M 439.175781 221.605469 L 505.410156 221.605469 L 505.410156 198.839844 L 439.175781 198.839844 L 439.175781 221.605469 " fill-opacity="1" fill-rule="nonzero"/><path fill="#ffffff" d="M 423.433594 246.445312 L 484.023438 246.445312 L 484.023438 174.015625 L 423.433594 174.015625 L 423.433594 246.445312 " fill-opacity="1" fill-rule="nonzero"/><path fill="#0065ff" d="M 520.40625 245.148438 L 520.40625 174.441406 L 501.695312 174.441406 L 501.695312 245.148438 L 520.40625 245.148438 " fill-opacity="1" fill-rule="nonzero"/><path fill="#0065ff" d="M 484.023438 248.910156 L 423.4375 248.910156 C 422.070312 248.910156 420.960938 247.8125 420.960938 246.445312 C 420.960938 245.074219 422.070312 243.964844 423.4375 243.964844 L 484.023438 243.964844 C 485.390625 243.964844 486.496094 245.074219 486.496094 246.445312 C 486.496094 247.8125 485.390625 248.910156 484.023438 248.910156 " fill-opacity="1" fill-rule="nonzero"/><path fill="#ffffff" d="M 353.722656 91.726562 C 343.089844 96.941406 332.683594 102.441406 322.527344 108.234375 L 322.527344 437.550781 L 353.722656 437.550781 L 353.722656 91.726562 " fill-opacity="1" fill-rule="nonzero"/><path fill="#ffffff" d="M 322.628906 221.605469 L 388.859375 221.605469 L 388.859375 198.839844 L 322.628906 198.839844 L 322.628906 221.605469 " fill-opacity="1" fill-rule="nonzero"/><path fill="#ffffff" d="M 306.886719 246.445312 L 367.472656 246.445312 L 367.472656 174.015625 L 306.886719 174.015625 L 306.886719 246.445312 " fill-opacity="1" fill-rule="nonzero"/><path fill="#0065ff" d="M 403.859375 245.148438 L 403.859375 174.441406 L 385.144531 174.441406 L 385.144531 245.148438 L 403.859375 245.148438 " fill-opacity="1" fill-rule="nonzero"/><path fill="#0065ff" d="M 367.472656 248.910156 L 306.886719 248.910156 C 305.519531 248.910156 304.410156 247.8125 304.410156 246.445312 C 304.410156 245.074219 305.519531 243.964844 306.886719 243.964844 L 367.472656 243.964844 C 368.84375 243.964844 369.949219 245.074219 369.949219 246.445312 C 369.949219 247.8125 368.84375 248.910156 367.472656 248.910156 " fill-opacity="1" fill-rule="nonzero"/><path fill="#ffffff" d="M 200.789062 646.40625 L 267.019531 646.40625 L 267.019531 623.636719 L 200.789062 623.636719 L 200.789062 646.40625 " fill-opacity="1" fill-rule="nonzero"/><path fill="#ffffff" d="M 185.050781 671.234375 L 245.632812 671.234375 L 245.632812 598.808594 L 185.050781 598.808594 L 185.050781 671.234375 " fill-opacity="1" fill-rule="nonzero"/><path fill="#0065ff" d="M 282.019531 669.945312 L 282.019531 599.242188 L 263.304688 599.242188 L 263.304688 669.945312 L 282.019531 669.945312 " fill-opacity="1" fill-rule="nonzero"/><path fill="#0065ff" d="M 245.632812 673.707031 L 185.046875 673.707031 C 183.679688 673.707031 182.570312 672.601562 182.570312 671.234375 C 182.570312 669.867188 183.679688 668.765625 185.046875 668.765625 L 245.632812 668.765625 C 247.003906 668.765625 248.109375 669.867188 248.109375 671.234375 C 248.109375 672.601562 247.003906 673.707031 245.632812 673.707031 " fill-opacity="1" fill-rule="nonzero"/><path fill="#2b7fff" d="M 1267.136719 1226.203125 C 1296.785156 1194.699219 1323.191406 1152.644531 1344.601562 1101.550781 L 1344.601562 338.554688 C 1344.601562 254.503906 1316.453125 234.300781 1216.878906 230.25 L 1077.921875 230.25 C 1061.921875 230.25 1048.949219 217.171875 1048.949219 201.039062 L 1048.949219 106.355469 C 1023.703125 92.949219 997.796875 81.042969 971.484375 70.664062 L 971.484375 209.824219 C 971.484375 264.25 1015.238281 308.371094 1069.214844 308.371094 L 1238.164062 308.371094 C 1254.164062 308.371094 1267.136719 321.449219 1267.136719 337.582031 L 1267.136719 1226.203125 " fill-opacity="1" fill-rule="nonzero"/><path fill="#2b7fff" d="M 1191.078125 216.117188 L 1246.855469 216.117188 C 1308.488281 216.117188 1358.617188 266.671875 1358.617188 328.800781 L 1358.617188 388.058594 L 1253.097656 388.058594 L 1253.097656 337.589844 C 1253.097656 329.277344 1246.390625 322.511719 1238.144531 322.511719 L 1191.089844 322.511719 L 1191.078125 216.117188 " fill-opacity="1" fill-rule="nonzero"/><path fill="#caddff" d="M 1339.226562 370.621094 C 1337.851562 370.621094 1336.746094 369.515625 1336.746094 368.140625 L 1336.746094 322.609375 C 1336.746094 276.234375 1299.328125 238.492188 1253.339844 238.492188 L 1210.480469 238.492188 C 1209.117188 238.492188 1208.011719 237.386719 1208.011719 236.023438 C 1208.011719 234.648438 1209.117188 233.546875 1210.480469 233.546875 L 1253.339844 233.546875 C 1302.054688 233.546875 1341.695312 273.5 1341.695312 322.609375 L 1341.695312 368.140625 C 1341.695312 369.515625 1340.589844 370.621094 1339.226562 370.621094 " fill-opacity="1" fill-rule="nonzero"/><path fill="#2b7fff" d="M 1062.957031 146.082031 L 1062.957031 201.046875 C 1062.957031 209.351562 1069.660156 216.121094 1077.902344 216.121094 L 1137.808594 216.121094 L 1137.808594 322.519531 L 1069.195312 322.519531 C 1007.578125 322.519531 957.4375 271.964844 957.4375 209.828125 L 957.4375 146.082031 L 1062.957031 146.082031 " fill-opacity="1" fill-rule="nonzero"/><path fill="#caddff" d="M 1123.589844 307.296875 C 1122.230469 307.296875 1121.121094 306.191406 1121.121094 304.824219 L 1121.121094 235.355469 L 1081.460938 235.355469 C 1061.371094 235.355469 1045.035156 218.886719 1045.035156 198.644531 L 1045.035156 162.070312 C 1045.035156 160.703125 1046.144531 159.597656 1047.511719 159.597656 C 1048.878906 159.597656 1049.984375 160.703125 1049.984375 162.070312 L 1049.984375 198.644531 C 1049.984375 216.15625 1064.101562 230.40625 1081.460938 230.40625 L 1123.589844 230.40625 C 1124.957031 230.40625 1126.070312 231.511719 1126.070312 232.878906 L 1126.070312 304.824219 C 1126.070312 306.191406 1124.957031 307.296875 1123.589844 307.296875 " fill-opacity="1" fill-rule="nonzero"/><path fill="#2b7fff" d="M 1267.136719 1226.203125 C 1296.785156 1194.699219 1323.191406 1152.644531 1344.601562 1101.550781 L 1344.601562 338.554688 C 1344.601562 254.503906 1316.453125 234.300781 1216.878906 230.25 L 1077.921875 230.25 C 1061.921875 230.25 1048.949219 217.171875 1048.949219 201.039062 L 1048.949219 106.355469 C 1023.703125 92.949219 997.796875 81.042969 971.484375 70.664062 L 971.484375 209.824219 C 971.484375 264.25 1015.238281 308.371094 1069.214844 308.371094 L 1238.164062 308.371094 C 1254.164062 308.371094 1267.136719 321.449219 1267.136719 337.582031 L 1267.136719 1226.203125 " fill-opacity="1" fill-rule="nonzero"/><path fill="#caddff" d="M 1328.097656 1108.886719 C 1326.726562 1108.886719 1325.628906 1107.78125 1325.628906 1106.414062 L 1325.628906 350.207031 C 1325.628906 269.242188 1301.023438 248.472656 1200.273438 244.382812 L 1061.417969 244.382812 C 1044.082031 244.382812 1029.976562 230.171875 1029.976562 212.691406 L 1029.976562 114.953125 C 1029.976562 113.589844 1031.070312 112.484375 1032.441406 112.484375 C 1033.804688 112.484375 1034.910156 113.589844 1034.910156 114.953125 L 1034.910156 212.691406 C 1034.910156 227.4375 1046.808594 239.433594 1061.417969 239.433594 L 1200.367188 239.433594 C 1254.789062 241.636719 1284.53125 248.792969 1303.144531 264.140625 C 1322.371094 279.992188 1330.578125 305.730469 1330.578125 350.207031 L 1330.578125 1106.414062 C 1330.578125 1107.78125 1329.457031 1108.886719 1328.097656 1108.886719 " fill-opacity="1" fill-rule="nonzero"/><path fill="#2b7fff" d="M 1191.078125 216.117188 L 1246.855469 216.117188 C 1308.488281 216.117188 1358.617188 266.671875 1358.617188 328.800781 L 1358.617188 388.058594 L 1253.097656 388.058594 L 1253.097656 337.589844 C 1253.097656 329.277344 1246.390625 322.511719 1238.144531 322.511719 L 1191.089844 322.511719 L 1191.078125 216.117188 " fill-opacity="1" fill-rule="nonzero"/><path fill="#caddff" d="M 1339.226562 370.621094 C 1337.851562 370.621094 1336.746094 369.515625 1336.746094 368.140625 L 1336.746094 322.609375 C 1336.746094 276.234375 1299.328125 238.492188 1253.339844 238.492188 L 1210.480469 238.492188 C 1209.117188 238.492188 1208.011719 237.386719 1208.011719 236.023438 C 1208.011719 234.648438 1209.117188 233.546875 1210.480469 233.546875 L 1253.339844 233.546875 C 1302.054688 233.546875 1341.695312 273.5 1341.695312 322.609375 L 1341.695312 368.140625 C 1341.695312 369.515625 1340.589844 370.621094 1339.226562 370.621094 " fill-opacity="1" fill-rule="nonzero"/><path fill="#2b7fff" d="M 1062.957031 146.082031 L 1062.957031 201.046875 C 1062.957031 209.351562 1069.660156 216.121094 1077.902344 216.121094 L 1137.808594 216.121094 L 1137.808594 322.519531 L 1069.195312 322.519531 C 1007.578125 322.519531 957.4375 271.964844 957.4375 209.828125 L 957.4375 146.082031 L 1062.957031 146.082031 " fill-opacity="1" fill-rule="nonzero"/><path fill="#caddff" d="M 1123.589844 307.296875 C 1122.230469 307.296875 1121.121094 306.191406 1121.121094 304.824219 L 1121.121094 235.355469 L 1081.460938 235.355469 C 1061.371094 235.355469 1045.035156 218.886719 1045.035156 198.644531 L 1045.035156 162.070312 C 1045.035156 160.703125 1046.144531 159.597656 1047.511719 159.597656 C 1048.878906 159.597656 1049.984375 160.703125 1049.984375 162.070312 L 1049.984375 198.644531 C 1049.984375 216.15625 1064.101562 230.40625 1081.460938 230.40625 L 1123.589844 230.40625 C 1124.957031 230.40625 1126.070312 231.511719 1126.070312 232.878906 L 1126.070312 304.824219 C 1126.070312 306.191406 1124.957031 307.296875 1123.589844 307.296875 " fill-opacity="1" fill-rule="nonzero"/><path fill="#0065ff" d="M 1217.878906 712.535156 L 1256.925781 712.535156 L 1256.925781 690.683594 C 1256.925781 687.382812 1254.253906 684.71875 1250.957031 684.71875 L 1223.835938 684.71875 C 1220.546875 684.71875 1217.878906 687.382812 1217.878906 690.683594 L 1217.878906 712.535156 " fill-opacity="1" fill-rule="nonzero"/><path fill="#000000" d="M 1220.347656 710.058594 L 1254.445312 710.058594 L 1254.445312 697.882812 C 1254.445312 691.988281 1249.65625 687.195312 1243.753906 687.195312 L 1231.046875 687.195312 C 1225.152344 687.195312 1220.347656 691.988281 1220.347656 697.882812 Z M 1256.921875 715.015625 L 1217.875 715.015625 C 1216.511719 715.015625 1215.402344 713.902344 1215.402344 712.53125 L 1215.402344 697.882812 C 1215.402344 689.261719 1222.414062 682.238281 1231.046875 682.238281 L 1243.753906 682.238281 C 1252.382812 682.238281 1259.394531 689.261719 1259.394531 697.882812 L 1259.394531 712.53125 C 1259.394531 713.902344 1258.292969 715.015625 1256.921875 715.015625 " fill-opacity="1" fill-rule="nonzero"/><path fill="#ffffff" d="M 1161.015625 970.304688 L 1282.394531 970.304688 L 1282.394531 722.511719 C 1282.394531 709.988281 1272.332031 699.839844 1259.898438 699.839844 L 1215.59375 699.839844 C 1199.09375 699.839844 1185.289062 712.5 1183.71875 729.066406 L 1161.015625 970.304688 " fill-opacity="1" fill-rule="nonzero"/><path fill="#000000" d="M 1163.734375 967.828125 L 1279.917969 967.828125 L 1279.917969 722.515625 C 1279.917969 711.382812 1270.949219 702.308594 1259.902344 702.308594 L 1215.59375 702.308594 C 1200.28125 702.308594 1187.632812 713.917969 1186.183594 729.296875 Z M 1282.398438 972.773438 L 1161.015625 972.773438 C 1160.320312 972.773438 1159.648438 972.484375 1159.1875 971.964844 C 1158.710938 971.453125 1158.480469 970.765625 1158.546875 970.070312 L 1181.253906 728.832031 C 1182.953125 710.894531 1197.71875 697.359375 1215.59375 697.359375 L 1259.902344 697.359375 C 1273.671875 697.359375 1284.867188 708.644531 1284.867188 722.515625 L 1284.867188 970.304688 C 1284.867188 971.667969 1283.765625 972.773438 1282.398438 972.773438 " fill-opacity="1" fill-rule="nonzero"/><path fill="#0065ff" d="M 1183.296875 954.757812 C 1183.222656 954.757812 1183.140625 954.75 1183.058594 954.746094 C 1181.707031 954.625 1180.703125 953.414062 1180.828125 952.054688 L 1200.074219 742.097656 C 1201.402344 728.0625 1212.9375 717.484375 1226.921875 717.484375 L 1257.042969 717.484375 C 1258.414062 717.484375 1259.515625 718.582031 1259.515625 719.957031 C 1259.515625 721.320312 1258.414062 722.4375 1257.042969 722.4375 L 1226.921875 722.4375 C 1215.511719 722.4375 1206.085938 731.085938 1205.015625 742.550781 L 1185.757812 952.507812 C 1185.640625 953.796875 1184.558594 954.757812 1183.296875 954.757812 " fill-opacity="1" fill-rule="nonzero"/><path fill="#ffffff" d="M 1116.488281 1091.921875 L 1200.660156 1140.914062 L 1228.675781 1091.996094 L 1144.503906 1043 L 1116.488281 1091.921875 " fill-opacity="1" fill-rule="nonzero"/><path fill="#000000" d="M 1119.855469 1091.015625 L 1199.753906 1137.523438 L 1225.3125 1092.902344 L 1145.410156 1046.390625 Z M 1200.667969 1143.394531 C 1200.230469 1143.394531 1199.800781 1143.285156 1199.417969 1143.0625 L 1115.242188 1094.058594 C 1114.074219 1093.375 1113.667969 1091.867188 1114.351562 1090.6875 L 1142.355469 1041.765625 C 1142.683594 1041.191406 1143.226562 1040.78125 1143.863281 1040.609375 C 1144.5 1040.4375 1145.171875 1040.527344 1145.746094 1040.855469 L 1229.914062 1089.859375 C 1231.089844 1090.546875 1231.5 1092.050781 1230.816406 1093.226562 L 1202.8125 1142.148438 C 1202.480469 1142.726562 1201.941406 1143.140625 1201.304688 1143.316406 C 1201.101562 1143.367188 1200.878906 1143.394531 1200.667969 1143.394531 " fill-opacity="1" fill-rule="nonzero"/><path fill="#2b7fff" d="M 1185.660156 1143.332031 L 1277.632812 1196.875 L 1315.210938 1131.238281 L 1223.238281 1077.691406 L 1185.660156 1143.332031 " fill-opacity="1" fill-rule="nonzero"/><path fill="#caddff" d="M 1293.394531 1139.757812 C 1292.980469 1139.757812 1292.542969 1139.65625 1292.15625 1139.421875 L 1226.949219 1101.460938 C 1225.773438 1100.773438 1225.367188 1099.257812 1226.050781 1098.078125 C 1226.742188 1096.894531 1228.261719 1096.5 1229.4375 1097.1875 L 1294.644531 1135.140625 C 1295.828125 1135.835938 1296.226562 1137.34375 1295.542969 1138.527344 C 1295.078125 1139.316406 1294.246094 1139.757812 1293.394531 1139.757812 " fill-opacity="1" fill-rule="nonzero"/><path fill="#ffffff" d="M 919.09375 1220.105469 L 959.632812 1037.824219 L 1126.203125 1001.085938 L 1126.203125 986.992188 L 1266.261719 993.417969 L 1161.007812 1082.710938 L 1161.007812 1220.105469 L 919.09375 1220.105469 " fill-opacity="1" fill-rule="nonzero"/><path fill="#000000" d="M 922.183594 1217.625 L 1158.535156 1217.625 L 1158.535156 1082.707031 C 1158.535156 1081.984375 1158.855469 1081.289062 1159.40625 1080.820312 L 1259.867188 995.597656 L 1128.683594 989.582031 L 1128.683594 1001.085938 C 1128.683594 1002.25 1127.875 1003.253906 1126.738281 1003.507812 L 961.699219 1039.898438 Z M 1161.015625 1222.578125 L 919.101562 1222.578125 C 918.347656 1222.578125 917.640625 1222.234375 917.167969 1221.648438 C 916.695312 1221.070312 916.511719 1220.300781 916.675781 1219.566406 L 957.210938 1037.285156 C 957.417969 1036.351562 958.15625 1035.617188 959.089844 1035.410156 L 1123.738281 999.097656 L 1123.738281 986.992188 C 1123.738281 986.316406 1124.015625 985.667969 1124.503906 985.207031 C 1124.984375 984.734375 1125.648438 984.480469 1126.324219 984.515625 L 1266.378906 990.941406 C 1267.398438 990.984375 1268.285156 991.652344 1268.613281 992.613281 C 1268.941406 993.570312 1268.640625 994.640625 1267.871094 995.296875 L 1163.484375 1083.851562 L 1163.484375 1220.105469 C 1163.484375 1221.472656 1162.378906 1222.578125 1161.015625 1222.578125 " fill-opacity="1" fill-rule="nonzero"/><path fill="#ffffff" d="M 949.394531 1082.714844 L 1161.011719 1082.714844 L 1271.082031 989.136719 L 1147.144531 989.136719 L 1147.144531 955.753906 C 1147.144531 945.828125 1139.160156 937.78125 1129.320312 937.78125 L 897.585938 937.78125 C 887.742188 937.78125 879.761719 945.828125 879.761719 955.753906 L 879.761719 970.628906 L 865.613281 1007.960938 L 949.394531 1082.714844 " fill-opacity="1" fill-rule="nonzero"/><path fill="#000000" d="M 950.355469 1080.238281 L 1160.101562 1080.238281 L 1264.351562 991.605469 L 1147.152344 991.605469 C 1145.78125 991.605469 1144.671875 990.5 1144.671875 989.132812 L 1144.671875 955.75 C 1144.671875 947.203125 1137.789062 940.25 1129.320312 940.25 L 897.59375 940.25 C 889.125 940.25 882.246094 947.203125 882.246094 955.75 L 882.246094 970.621094 C 882.246094 970.921875 882.1875 971.21875 882.089844 971.496094 L 868.535156 1007.246094 Z M 1161.015625 1085.183594 L 949.40625 1085.183594 C 948.796875 1085.183594 948.214844 1084.957031 947.757812 1084.554688 L 863.96875 1009.808594 C 863.203125 1009.125 862.9375 1008.042969 863.304688 1007.082031 L 877.296875 970.167969 L 877.296875 955.75 C 877.296875 944.480469 886.398438 935.304688 897.59375 935.304688 L 1129.320312 935.304688 C 1140.515625 935.304688 1149.621094 944.480469 1149.621094 955.75 L 1149.621094 986.652344 L 1271.09375 986.652344 C 1272.125 986.652344 1273.054688 987.304688 1273.417969 988.273438 C 1273.777344 989.253906 1273.484375 990.34375 1272.691406 991.015625 L 1162.617188 1084.59375 C 1162.160156 1084.972656 1161.597656 1085.183594 1161.015625 1085.183594 " fill-opacity="1" fill-rule="nonzero"/><path fill="#ffffff" d="M 865.621094 1007.957031 L 1282.394531 1007.957031 L 1282.394531 970.304688 L 865.621094 970.304688 L 865.621094 1007.957031 " fill-opacity="1" fill-rule="nonzero"/><path fill="#000000" d="M 868.09375 1005.484375 L 1279.917969 1005.484375 L 1279.917969 972.773438 L 868.09375 972.773438 Z M 1282.398438 1010.4375 L 865.621094 1010.4375 C 864.253906 1010.4375 863.152344 1009.324219 863.152344 1007.957031 L 863.152344 970.304688 C 863.152344 968.933594 864.253906 967.828125 865.621094 967.828125 L 1282.398438 967.828125 C 1283.765625 967.828125 1284.867188 968.933594 1284.867188 970.304688 L 1284.867188 1007.957031 C 1284.867188 1009.324219 1283.765625 1010.4375 1282.398438 1010.4375 " fill-opacity="1" fill-rule="nonzero"/><path fill="#ffffff" d="M 438.347656 1380.496094 L 38.175781 1380.496094 L 38.175781 821.492188 L 438.347656 821.492188 L 438.347656 1380.496094 " fill-opacity="1" fill-rule="nonzero"/><path fill="#2b7fff" d="M 414.667969 878.550781 L 328.886719 878.550781 L 328.886719 838.488281 L 414.667969 838.488281 L 414.667969 878.550781 " fill-opacity="1" fill-rule="nonzero"/><path fill="#2b7fff" d="M 331.359375 1354.28125 L 410.542969 1354.28125 L 410.542969 1292.175781 L 331.359375 1292.175781 Z M 413.019531 1359.234375 L 328.886719 1359.234375 C 327.519531 1359.234375 326.414062 1358.128906 326.414062 1356.761719 L 326.414062 1289.695312 C 326.414062 1288.332031 327.519531 1287.226562 328.886719 1287.226562 L 413.019531 1287.226562 C 414.386719 1287.226562 415.496094 1288.332031 415.496094 1289.695312 L 415.496094 1356.761719 C 415.496094 1358.128906 414.386719 1359.234375 413.019531 1359.234375 " fill-opacity="1" fill-rule="nonzero"/><path fill="#000000" d="M 438.347656 898.015625 L 39.136719 898.015625 C 37.769531 898.015625 36.664062 896.910156 36.664062 895.535156 C 36.664062 894.171875 37.769531 893.066406 39.136719 893.066406 L 438.347656 893.066406 C 439.714844 893.066406 440.824219 894.171875 440.824219 895.535156 C 440.824219 896.910156 439.714844 898.015625 438.347656 898.015625 " fill-opacity="1" fill-rule="nonzero"/><path fill="#000000" d="M 162.558594 898.015625 C 161.191406 898.015625 160.082031 896.910156 160.082031 895.535156 L 160.082031 821.492188 C 160.082031 820.128906 161.191406 819.023438 162.558594 819.023438 C 163.925781 819.023438 165.035156 820.128906 165.035156 821.492188 L 165.035156 895.535156 C 165.035156 896.910156 163.925781 898.015625 162.558594 898.015625 " fill-opacity="1" fill-rule="nonzero"/><path fill="#2b7fff" d="M 145.601562 878.570312 L 53.488281 878.570312 C 52.121094 878.570312 51.015625 877.460938 51.015625 876.089844 C 51.015625 874.726562 52.121094 873.621094 53.488281 873.621094 L 145.601562 873.621094 C 146.96875 873.621094 148.074219 874.726562 148.074219 876.089844 C 148.074219 877.460938 146.96875 878.570312 145.601562 878.570312 " fill-opacity="1" fill-rule="nonzero"/><path fill="#000000" d="M 40.652344 1378.019531 L 435.875 1378.019531 L 435.875 823.96875 L 40.652344 823.96875 Z M 438.347656 1382.964844 L 38.175781 1382.964844 C 36.8125 1382.964844 35.703125 1381.859375 35.703125 1380.496094 L 35.703125 821.492188 C 35.703125 820.128906 36.8125 819.023438 38.175781 819.023438 L 438.347656 819.023438 C 439.714844 819.023438 440.824219 820.128906 440.824219 821.492188 L 440.824219 1380.496094 C 440.824219 1381.859375 439.714844 1382.964844 438.347656 1382.964844 " fill-opacity="1" fill-rule="nonzero"/><path fill="#0065ff" d="M 255.667969 858.46875 C 255.667969 868.03125 247.921875 875.769531 238.367188 875.769531 C 228.8125 875.769531 221.066406 868.03125 221.066406 858.46875 C 221.066406 848.917969 228.8125 841.167969 238.367188 841.167969 C 247.921875 841.167969 255.667969 848.917969 255.667969 858.46875 " fill-opacity="1" fill-rule="nonzero"/><path fill="#0065ff" d="M 206.28125 843.648438 L 183.617188 843.648438 C 182.25 843.648438 181.140625 842.539062 181.140625 841.167969 C 181.140625 839.804688 182.25 838.699219 183.617188 838.699219 L 206.28125 838.699219 C 207.644531 838.699219 208.753906 839.804688 208.753906 841.167969 C 208.753906 842.539062 207.644531 843.648438 206.28125 843.648438 " fill-opacity="1" fill-rule="nonzero"/><path fill="#0065ff" d="M 206.28125 860.949219 L 183.617188 860.949219 C 182.25 860.949219 181.140625 859.839844 181.140625 858.46875 C 181.140625 857.105469 182.25 856 183.617188 856 L 206.28125 856 C 207.644531 856 208.753906 857.105469 208.753906 858.46875 C 208.753906 859.839844 207.644531 860.949219 206.28125 860.949219 " fill-opacity="1" fill-rule="nonzero"/><path fill="#0065ff" d="M 206.28125 878.25 L 183.617188 878.25 C 182.25 878.25 181.140625 877.140625 181.140625 875.769531 C 181.140625 874.40625 182.25 873.296875 183.617188 873.296875 L 206.28125 873.296875 C 207.644531 873.296875 208.753906 874.40625 208.753906 875.769531 C 208.753906 877.140625 207.644531 878.25 206.28125 878.25 " fill-opacity="1" fill-rule="nonzero"/><path fill="#0065ff" d="M 294.761719 843.648438 L 272.097656 843.648438 C 270.730469 843.648438 269.621094 842.539062 269.621094 841.167969 C 269.621094 839.804688 270.730469 838.699219 272.097656 838.699219 L 294.761719 838.699219 C 296.125 838.699219 297.234375 839.804688 297.234375 841.167969 C 297.234375 842.539062 296.125 843.648438 294.761719 843.648438 " fill-opacity="1" fill-rule="nonzero"/><path fill="#0065ff" d="M 294.761719 860.949219 L 272.097656 860.949219 C 270.730469 860.949219 269.621094 859.839844 269.621094 858.46875 C 269.621094 857.105469 270.730469 856 272.097656 856 L 294.761719 856 C 296.125 856 297.234375 857.105469 297.234375 858.46875 C 297.234375 859.839844 296.125 860.949219 294.761719 860.949219 " fill-opacity="1" fill-rule="nonzero"/><path fill="#0065ff" d="M 294.761719 878.25 L 272.097656 878.25 C 270.730469 878.25 269.621094 877.140625 269.621094 875.769531 C 269.621094 874.40625 270.730469 873.296875 272.097656 873.296875 L 294.761719 873.296875 C 296.125 873.296875 297.234375 874.40625 297.234375 875.769531 C 297.234375 877.140625 296.125 878.25 294.761719 878.25 " fill-opacity="1" fill-rule="nonzero"/><path fill="#0065ff" d="M 397.566406 1087.148438 C 397.566406 1175.128906 326.246094 1246.453125 238.265625 1246.453125 C 150.28125 1246.453125 78.957031 1175.128906 78.957031 1087.148438 C 78.957031 999.167969 150.28125 927.84375 238.265625 927.84375 C 326.246094 927.84375 397.566406 999.167969 397.566406 1087.148438 " fill-opacity="1" fill-rule="nonzero"/><path fill="#000000" d="M 238.265625 930.316406 C 151.789062 930.316406 81.433594 1000.667969 81.433594 1087.148438 C 81.433594 1173.621094 151.789062 1243.980469 238.265625 1243.980469 C 324.742188 1243.980469 395.09375 1173.621094 395.09375 1087.148438 C 395.09375 1000.667969 324.742188 930.316406 238.265625 930.316406 Z M 238.265625 1248.925781 C 149.058594 1248.925781 76.484375 1176.355469 76.484375 1087.148438 C 76.484375 997.941406 149.058594 925.371094 238.265625 925.371094 C 327.46875 925.371094 400.042969 997.941406 400.042969 1087.148438 C 400.042969 1176.355469 327.46875 1248.925781 238.265625 1248.925781 " fill-opacity="1" fill-rule="nonzero"/><path fill="#2b7fff" d="M 364.726562 1087.148438 C 364.726562 1156.992188 308.105469 1213.609375 238.265625 1213.609375 C 168.417969 1213.609375 111.800781 1156.992188 111.800781 1087.148438 C 111.800781 1017.304688 168.417969 960.6875 238.265625 960.6875 C 308.105469 960.6875 364.726562 1017.304688 364.726562 1087.148438 " fill-opacity="1" fill-rule="nonzero"/><path fill="#caddff" d="M 238.265625 1193.183594 C 179.792969 1193.183594 132.226562 1145.617188 132.226562 1087.148438 C 132.226562 1066.082031 138.386719 1045.734375 150.046875 1028.292969 C 150.804688 1027.15625 152.339844 1026.851562 153.480469 1027.605469 C 154.613281 1028.367188 154.921875 1029.90625 154.164062 1031.039062 C 143.046875 1047.660156 137.175781 1067.070312 137.175781 1087.148438 C 137.175781 1142.886719 182.523438 1188.238281 238.265625 1188.238281 C 269.347656 1188.238281 298.25 1174.242188 317.566406 1149.84375 C 318.417969 1148.769531 319.972656 1148.589844 321.046875 1149.4375 C 322.117188 1150.285156 322.296875 1151.847656 321.449219 1152.914062 C 301.1875 1178.503906 270.867188 1193.183594 238.265625 1193.183594 " fill-opacity="1" fill-rule="nonzero"/><path fill="#0065ff" d="M 320.75 1088.128906 C 320.75 1122.4375 341.804688 1151.824219 371.695312 1164.097656 C 385.359375 1141.6875 393.226562 1115.371094 393.226562 1087.207031 C 393.226562 1059.664062 385.695312 1033.886719 372.585938 1011.804688 C 342.226562 1023.855469 320.75 1053.472656 320.75 1088.128906 " fill-opacity="1" fill-rule="nonzero"/><path fill="#ffffff" d="M 808.996094 700.1875 C 798.464844 708.824219 791.578125 671.207031 791.578125 671.207031 L 835.203125 639.691406 L 863.257812 608.167969 C 866.132812 604.929688 871.085938 604.605469 874.378906 607.433594 C 877.734375 610.332031 878.085938 615.402344 875.152344 618.722656 L 862.648438 632.847656 C 860.914062 634.804688 861.839844 637.914062 864.363281 638.609375 C 868.277344 639.679688 872.339844 640.039062 876.375 639.652344 C 883.710938 638.941406 896.375 637.390625 908.675781 634.304688 C 914.457031 632.855469 919.210938 638.273438 915.546875 642.96875 L 882.210938 662.578125 C 873.761719 667.546875 859.554688 668.113281 850.089844 665.542969 C 850.089844 665.542969 841.59375 675.570312 832.265625 683.472656 C 824.707031 689.886719 817.109375 693.542969 808.996094 700.1875 " fill-opacity="1" fill-rule="nonzero"/><path fill="#000000" d="M 794.304688 672.289062 C 796.417969 682.890625 800.988281 697.3125 805.335938 698.90625 C 805.636719 699.007812 806.253906 699.238281 807.429688 698.277344 C 811.492188 694.945312 815.421875 692.351562 819.214844 689.851562 C 823.171875 687.234375 826.917969 684.765625 830.667969 681.589844 C 839.734375 673.902344 848.117188 664.042969 848.199219 663.9375 C 848.820312 663.207031 849.8125 662.898438 850.738281 663.152344 C 859.34375 665.492188 873 665.117188 880.953125 660.441406 L 913.835938 641.101562 C 914.492188 640.085938 914.53125 639.078125 913.941406 638.171875 C 913.203125 637.046875 911.476562 636.152344 909.28125 636.703125 C 896.546875 639.898438 883.34375 641.460938 876.617188 642.109375 C 872.273438 642.53125 867.945312 642.15625 863.714844 640.988281 C 861.691406 640.4375 860.128906 638.90625 859.539062 636.902344 C 858.941406 634.902344 859.410156 632.773438 860.792969 631.203125 L 873.296875 617.085938 C 874.269531 615.980469 874.753906 614.5625 874.65625 613.089844 C 874.554688 611.621094 873.882812 610.273438 872.761719 609.3125 C 870.511719 607.367188 867.078125 607.597656 865.105469 609.808594 L 837.054688 641.34375 C 836.933594 641.476562 836.800781 641.59375 836.652344 641.699219 Z M 808.996094 700.1875 L 809.011719 700.1875 Z M 805.875 703.960938 C 805.015625 703.960938 804.261719 703.78125 803.636719 703.550781 C 794.8125 700.316406 790.015625 676.414062 789.140625 671.652344 C 788.96875 670.714844 789.351562 669.757812 790.128906 669.207031 L 833.535156 637.847656 L 861.40625 606.523438 C 865.164062 602.300781 871.707031 601.871094 875.996094 605.558594 C 878.125 607.398438 879.402344 609.953125 879.59375 612.761719 C 879.78125 615.5625 878.863281 618.257812 877.003906 620.363281 L 864.496094 634.492188 C 864.160156 634.871094 864.222656 635.285156 864.28125 635.492188 C 864.34375 635.703125 864.519531 636.082031 865.023438 636.21875 C 868.671875 637.222656 872.417969 637.546875 876.144531 637.1875 C 882.730469 636.554688 895.648438 635.011719 908.078125 631.898438 C 912.03125 630.914062 916.058594 632.347656 918.089844 635.476562 C 919.894531 638.25 919.671875 641.699219 917.5 644.488281 C 917.3125 644.734375 917.074219 644.941406 916.804688 645.097656 L 883.464844 664.707031 C 874.539062 669.957031 860.464844 670.460938 850.96875 668.304688 C 848.421875 671.207031 841.476562 678.917969 833.863281 685.363281 C 829.890625 688.738281 825.847656 691.394531 821.941406 693.980469 C 818.25 696.417969 814.433594 698.933594 810.566406 702.109375 C 808.855469 703.507812 807.242188 703.960938 805.875 703.960938 " fill-opacity="1" fill-rule="nonzero"/><path fill="#2b7fff" d="M 672.378906 481.84375 C 641.914062 488.828125 620.363281 503.886719 620.363281 503.886719 C 620.363281 503.886719 573.753906 533.601562 574.863281 590.308594 C 575.722656 634.304688 608.457031 686.691406 608.191406 690.445312 C 605.320312 732.441406 602.101562 731.007812 606.445312 745.964844 C 616.996094 782.296875 766.324219 767.308594 768.976562 750.664062 C 771.382812 735.566406 764.441406 710.308594 767.929688 676.34375 C 771.011719 646.324219 781.910156 609.382812 781.910156 609.382812 C 830.457031 637.152344 880.875 633.59375 926.757812 601.054688 C 980.847656 562.710938 1021.902344 477.394531 1021.902344 477.394531 L 992.03125 460.105469 C 992.03125 460.105469 927.636719 534.253906 873.554688 540.050781 C 841.335938 543.503906 813.449219 524.660156 797.183594 510.191406 C 780.777344 495.597656 760.859375 485.410156 739.273438 481.34375 C 720.292969 477.773438 696.746094 476.257812 672.378906 481.84375 " fill-opacity="1" fill-rule="nonzero"/><path fill="#000000" d="M 637.832031 768.359375 C 656.871094 682.296875 657.738281 566.285156 657.738281 566.285156 C 657.789062 561.878906 661.375 558.34375 665.78125 558.34375 L 760.664062 558.34375 C 765.074219 558.34375 768.660156 561.890625 768.710938 566.296875 L 768.433594 770.183594 L 637.832031 768.359375 " fill-opacity="1" fill-rule="nonzero"/><path fill="#000000" d="M 677.195312 575.5 C 677.046875 575.5 676.90625 575.5 676.761719 575.492188 C 672.191406 575.285156 668.683594 571.824219 668.917969 567.769531 C 671.265625 527.199219 661.09375 509.125 652.132812 501.109375 C 646.660156 496.199219 637.582031 492.160156 632.386719 490.09375 C 631.007812 489.554688 631.039062 487.601562 632.429688 487.09375 C 635.34375 486.011719 639.167969 484.644531 641.535156 483.980469 C 643.410156 483.449219 652.195312 480.035156 663.894531 490.753906 C 680.171875 505.664062 687.585938 531.644531 685.457031 568.523438 C 685.226562 572.453125 681.574219 575.5 677.195312 575.5 " fill-opacity="1" fill-rule="nonzero"/><path fill="#000000" d="M 751.769531 578.378906 C 751.644531 578.339844 751.523438 578.292969 751.402344 578.242188 C 747.839844 576.851562 743.1875 571.824219 744.585938 568.179688 C 765.527344 513.710938 759.246094 490.726562 754.121094 482.148438 C 753.367188 480.886719 754.660156 479.390625 756.019531 479.953125 C 758.484375 480.953125 764.078125 483.015625 765.640625 483.738281 C 770.953125 486.207031 785.929688 498.214844 760.40625 574.171875 C 759.203125 577.75 755.234375 579.503906 751.769531 578.378906 " fill-opacity="1" fill-rule="nonzero"/><path fill="#0065ff" d="M 1111.089844 652.796875 C 1157.234375 637.882812 1226.261719 558.914062 1226.261719 558.914062 L 1211.414062 544.066406 L 1072.96875 588.410156 L 974.707031 538.121094 L 1046.617188 433.246094 L 1178.25 410.339844 C 1143.796875 371.84375 1070.398438 349.25 1018.417969 366.050781 C 955.890625 386.261719 915.667969 443.46875 914.105469 505.636719 L 443.117188 657.863281 C 416.871094 666.34375 402.472656 694.496094 410.957031 720.734375 C 419.4375 746.992188 447.921875 773.511719 474.164062 765.027344 L 944.816406 600.675781 C 982.464844 650.160156 1048.566406 673.003906 1111.089844 652.796875 " fill-opacity="1" fill-rule="nonzero"/><path fill="#ffffff" d="M 1125.941406 667.648438 C 1177.933594 650.839844 1214.511719 608.457031 1226.261719 558.914062 L 1109.476562 596.660156 L 1011.210938 546.378906 L 1061.453125 448.09375 L 1178.25 410.339844 C 1139.714844 377.050781 1085.25 364.101562 1033.265625 380.898438 C 970.738281 401.113281 930.515625 458.320312 928.957031 520.484375 L 457.964844 672.710938 C 431.722656 681.1875 417.324219 709.34375 425.804688 735.589844 C 434.289062 761.839844 462.4375 776.234375 488.683594 767.753906 L 959.667969 615.523438 C 997.3125 665.007812 1063.421875 687.851562 1125.941406 667.648438 " fill-opacity="1" fill-rule="nonzero"/><path fill="#000000" d="M 1080 375.960938 C 1064.667969 375.960938 1049.179688 378.355469 1034.03125 383.25 C 974.234375 402.582031 933.003906 457.753906 931.429688 520.539062 C 931.390625 521.589844 930.710938 522.507812 929.703125 522.835938 L 458.730469 675.066406 C 446.664062 678.964844 436.84375 687.324219 431.070312 698.613281 C 425.296875 709.898438 424.261719 722.761719 428.160156 734.828125 C 432.0625 746.890625 440.425781 756.710938 451.710938 762.488281 C 463 768.261719 475.859375 769.292969 487.925781 765.394531 L 958.90625 613.167969 C 959.90625 612.84375 961.003906 613.1875 961.640625 614.019531 C 990.144531 651.492188 1034.230469 672.457031 1079.707031 672.457031 C 1094.894531 672.457031 1110.222656 670.125 1125.191406 665.28125 C 1173.488281 649.671875 1209.683594 611.488281 1222.773438 562.644531 L 1110.246094 599.015625 C 1109.621094 599.222656 1108.9375 599.160156 1108.355469 598.867188 L 1010.085938 548.582031 C 1008.875 547.957031 1008.386719 546.46875 1009.007812 545.25 L 1059.257812 446.960938 C 1059.558594 446.378906 1060.078125 445.9375 1060.703125 445.734375 L 1173.230469 409.363281 C 1146.328125 387.441406 1113.535156 375.960938 1080 375.960938 Z M 473.269531 772.667969 C 465.082031 772.667969 456.957031 770.734375 449.460938 766.894531 C 436.992188 760.523438 427.757812 749.671875 423.453125 736.347656 C 414.5625 708.847656 429.703125 679.238281 457.207031 670.355469 L 926.53125 518.664062 C 928.882812 454.503906 971.28125 398.332031 1032.511719 378.542969 C 1083.890625 361.941406 1138.964844 373.132812 1179.859375 408.46875 C 1180.542969 409.050781 1180.851562 409.953125 1180.675781 410.828125 C 1180.496094 411.714844 1179.851562 412.417969 1179.003906 412.695312 L 1063.199219 450.128906 L 1014.546875 545.292969 L 1109.699219 593.988281 L 1225.503906 556.5625 C 1226.351562 556.28125 1227.289062 556.492188 1227.941406 557.09375 C 1228.609375 557.703125 1228.882812 558.613281 1228.679688 559.492188 C 1216.199219 612.082031 1178.074219 653.394531 1126.703125 670.003906 L 1125.941406 667.640625 L 1126.703125 670.003906 C 1065.484375 689.792969 998.222656 669.054688 958.777344 618.410156 L 489.445312 770.105469 C 484.140625 771.816406 478.691406 772.667969 473.269531 772.667969 " fill-opacity="1" fill-rule="nonzero"/><path fill="#2b7fff" d="M 642.6875 507.996094 C 642.6875 507.996094 609.503906 522.082031 591.976562 579.429688 C 582.3125 611.078125 585.546875 655.078125 631.773438 716.214844 C 677.375 776.523438 812.664062 703.050781 812.664062 703.050781 L 809.683594 657.867188 C 809.683594 657.867188 735.179688 698.925781 684.839844 675.332031 C 670.34375 668.539062 648.199219 595.726562 645.941406 559.457031 L 642.6875 507.996094 " fill-opacity="1" fill-rule="nonzero"/><path fill="#000000" d="M 692.257812 742.386719 C 665.320312 742.386719 644.171875 734.148438 629.910156 717.84375 C 625.238281 712.484375 621.195312 706.824219 617.289062 701.339844 L 615.078125 698.238281 C 614.277344 697.128906 614.53125 695.582031 615.644531 694.789062 C 616.757812 693.992188 618.304688 694.246094 619.09375 695.351562 L 621.320312 698.464844 C 625.152344 703.851562 629.121094 709.414062 633.640625 714.585938 C 681.589844 769.429688 796.359375 709.160156 810.09375 701.652344 L 807.457031 661.777344 C 791.300781 669.808594 722.925781 701.117188 683.5625 677.453125 C 671.59375 670.257812 654.585938 623.945312 647.375 587.34375 C 647.105469 586.003906 647.980469 584.703125 649.328125 584.4375 C 650.664062 584.171875 651.960938 585.046875 652.230469 586.386719 C 659.722656 624.429688 676.507812 667.433594 686.109375 673.207031 C 727.648438 698.171875 807.71875 656.109375 808.519531 655.683594 C 809.265625 655.285156 810.152344 655.296875 810.886719 655.707031 C 811.617188 656.109375 812.097656 656.863281 812.15625 657.699219 L 815.136719 702.894531 C 815.195312 703.835938 814.71875 704.730469 813.898438 705.203125 C 813.578125 705.386719 781.140625 723.847656 742.664062 734.632812 C 724.183594 739.8125 707.316406 742.386719 692.257812 742.386719 " fill-opacity="1" fill-rule="nonzero"/><path fill="#ffffff" d="M 655.863281 1188.523438 L 645.300781 1239.6875 L 672.953125 1247.585938 L 688.253906 1197.773438 L 655.863281 1188.523438 " fill-opacity="1" fill-rule="nonzero"/><path fill="#000000" d="M 648.183594 1237.9375 L 671.300781 1244.542969 L 685.144531 1199.457031 L 657.746094 1191.628906 Z M 672.953125 1250.066406 C 672.730469 1250.066406 672.503906 1250.03125 672.273438 1249.972656 L 644.621094 1242.066406 C 643.371094 1241.710938 642.609375 1240.453125 642.875 1239.183594 L 653.441406 1188.023438 C 653.574219 1187.347656 653.996094 1186.761719 654.585938 1186.402344 C 655.167969 1186.050781 655.882812 1185.953125 656.542969 1186.140625 L 688.933594 1195.398438 C 689.566406 1195.574219 690.105469 1196.007812 690.425781 1196.589844 C 690.738281 1197.179688 690.816406 1197.867188 690.621094 1198.503906 L 675.320312 1248.3125 C 674.992188 1249.382812 674.011719 1250.066406 672.953125 1250.066406 " fill-opacity="1" fill-rule="nonzero"/><path fill="#2b7fff" d="M 636.148438 1282.808594 C 636.460938 1287.734375 642.433594 1291.683594 647.253906 1292.421875 C 664.027344 1294.976562 703.453125 1293.894531 714.164062 1294.640625 C 728.058594 1295.613281 754.160156 1294.566406 755.175781 1285.625 C 756.40625 1274.703125 744.757812 1258.792969 716.871094 1250.078125 C 702.445312 1245.566406 687.191406 1223.222656 680.4375 1222.824219 C 673.691406 1222.429688 661.742188 1240.074219 661.742188 1240.074219 L 642.527344 1233.476562 C 642.527344 1233.476562 634.566406 1257.84375 636.148438 1282.808594 " fill-opacity="1" fill-rule="nonzero"/><path fill="#000000" d="M 644.164062 1236.652344 C 642.265625 1243.34375 637.367188 1262.9375 638.621094 1282.652344 C 638.835938 1286.039062 643.640625 1289.367188 647.625 1289.972656 C 658.425781 1291.621094 679.519531 1291.734375 694.914062 1291.828125 C 703.304688 1291.871094 710.558594 1291.914062 714.335938 1292.175781 C 731.980469 1293.410156 752.082031 1290.90625 752.710938 1285.34375 C 753.875 1275.039062 741.683594 1260.429688 716.132812 1252.4375 C 707.585938 1249.769531 698.949219 1241.417969 692.007812 1234.714844 C 687.722656 1230.574219 682.398438 1225.417969 680.296875 1225.296875 C 677 1225.050781 669.15625 1233.539062 663.792969 1241.460938 C 663.167969 1242.390625 661.996094 1242.777344 660.941406 1242.410156 Z M 723.128906 1297.390625 C 718.132812 1297.390625 714.480469 1297.152344 713.988281 1297.113281 C 710.371094 1296.859375 703.191406 1296.820312 694.886719 1296.777344 C 678.464844 1296.683594 658.039062 1296.566406 646.875 1294.867188 C 640.832031 1293.949219 634.074219 1289.136719 633.683594 1282.964844 C 632.085938 1257.816406 639.839844 1233.714844 640.175781 1232.707031 C 640.378906 1232.082031 640.832031 1231.558594 641.421875 1231.257812 C 642.011719 1230.960938 642.699219 1230.914062 643.328125 1231.132812 L 660.777344 1237.125 C 664.339844 1232.121094 673.738281 1219.949219 680.585938 1220.355469 C 684.519531 1220.585938 689.105469 1225.023438 695.445312 1231.152344 C 702.011719 1237.496094 710.175781 1245.394531 717.609375 1247.714844 C 747.03125 1256.910156 758.976562 1273.957031 757.632812 1285.902344 C 756.503906 1295.882812 735.613281 1297.390625 723.128906 1297.390625 " fill-opacity="1" fill-rule="nonzero"/><path fill="#000000" d="M 730.144531 1284.054688 C 726.445312 1284.054688 722.40625 1283.847656 718.125 1283.617188 C 711.828125 1283.289062 705.3125 1282.945312 698.9375 1283.234375 C 684.269531 1283.90625 671.71875 1283.324219 663.78125 1282.71875 C 648.558594 1281.554688 647.996094 1280.65625 647.453125 1279.800781 C 646.972656 1279.042969 646.945312 1278.082031 647.359375 1277.296875 C 647.988281 1276.132812 649.410156 1275.667969 650.597656 1276.222656 C 653.34375 1276.863281 673.703125 1279.441406 698.710938 1278.289062 C 705.335938 1277.988281 711.96875 1278.335938 718.386719 1278.679688 C 727.929688 1279.179688 736.949219 1279.648438 741.988281 1277.480469 C 743.253906 1276.945312 744.703125 1277.527344 745.242188 1278.785156 C 745.785156 1280.039062 745.203125 1281.496094 743.949219 1282.03125 C 740.308594 1283.59375 735.597656 1284.054688 730.144531 1284.054688 " fill-opacity="1" fill-rule="nonzero"/><path fill="#000000" d="M 694.363281 1266.511719 C 693.734375 1266.511719 693.113281 1266.277344 692.636719 1265.808594 C 691.660156 1264.859375 691.628906 1263.289062 692.578125 1262.3125 L 702.707031 1251.855469 C 703.652344 1250.875 705.222656 1250.851562 706.203125 1251.800781 C 707.1875 1252.75 707.210938 1254.320312 706.261719 1255.296875 L 696.140625 1265.753906 C 695.65625 1266.257812 695.003906 1266.511719 694.363281 1266.511719 " fill-opacity="1" fill-rule="nonzero"/><path fill="#ffffff" d="M 505.855469 1186.089844 L 504.445312 1221.777344 L 529.132812 1227.792969 L 533.535156 1186.34375 L 505.855469 1186.089844 " fill-opacity="1" fill-rule="nonzero"/><path fill="#000000" d="M 507 1219.851562 L 526.972656 1224.714844 L 530.785156 1188.792969 L 508.234375 1188.582031 Z M 529.132812 1230.265625 C 528.9375 1230.265625 528.742188 1230.242188 528.550781 1230.199219 L 503.863281 1224.175781 C 502.714844 1223.902344 501.925781 1222.855469 501.972656 1221.675781 L 503.378906 1185.992188 C 503.433594 1184.652344 504.542969 1183.660156 505.875 1183.613281 L 533.554688 1183.863281 C 534.253906 1183.867188 534.917969 1184.167969 535.378906 1184.691406 C 535.84375 1185.214844 536.066406 1185.90625 535.992188 1186.601562 L 531.597656 1228.054688 C 531.519531 1228.765625 531.144531 1229.40625 530.558594 1229.816406 C 530.136719 1230.113281 529.640625 1230.265625 529.132812 1230.265625 " fill-opacity="1" fill-rule="nonzero"/><path fill="#2b7fff" d="M 532.902344 1292.683594 C 523.007812 1294.089844 506.863281 1294.6875 487.738281 1292.660156 C 479.160156 1291.757812 475.816406 1279.722656 477.324219 1273.539062 C 481.519531 1256.292969 488.808594 1228.480469 501.210938 1213.324219 L 505.765625 1222.578125 L 510.066406 1213.554688 C 510.644531 1212.492188 511.695312 1211.777344 512.882812 1211.621094 L 522.160156 1211.710938 C 524.105469 1211.464844 525.917969 1212.769531 526.320312 1214.714844 L 527.804688 1221.847656 L 535.71875 1212.636719 L 541.894531 1280.664062 C 542.65625 1286.484375 538.652344 1291.863281 532.902344 1292.683594 " fill-opacity="1" fill-rule="nonzero"/><path fill="#000000" d="M 532.554688 1290.234375 L 532.902344 1292.683594 L 532.554688 1290.234375 C 536.933594 1289.605469 540.027344 1285.460938 539.441406 1280.976562 L 533.78125 1218.6875 L 529.683594 1223.457031 C 529.066406 1224.171875 528.097656 1224.476562 527.1875 1224.242188 C 526.273438 1224.003906 525.574219 1223.273438 525.382812 1222.347656 L 523.894531 1215.210938 C 523.757812 1214.53125 523.144531 1214.078125 522.476562 1214.167969 C 522.363281 1214.183594 522.25 1214.191406 522.136719 1214.191406 L 513.078125 1214.101562 C 512.722656 1214.183594 512.414062 1214.414062 512.234375 1214.742188 L 508 1223.644531 C 507.589844 1224.496094 506.730469 1225.050781 505.78125 1225.050781 C 505.777344 1225.050781 505.769531 1225.050781 505.765625 1225.050781 C 504.820312 1225.050781 503.960938 1224.519531 503.542969 1223.667969 L 500.765625 1218.023438 C 489.410156 1234.324219 482.699219 1261.898438 479.730469 1274.121094 C 478.960938 1277.28125 479.753906 1282.800781 482.40625 1286.574219 C 483.941406 1288.75 485.820312 1289.972656 487.996094 1290.203125 C 504.070312 1291.910156 520.726562 1291.914062 532.554688 1290.234375 Z M 511.785156 1296.457031 C 504.957031 1296.457031 496.796875 1296.113281 487.472656 1295.125 C 483.867188 1294.746094 480.714844 1292.773438 478.359375 1289.417969 C 474.726562 1284.265625 473.878906 1277.226562 474.917969 1272.949219 C 479.976562 1252.152344 487.320312 1226.398438 499.296875 1211.753906 C 499.828125 1211.105469 500.652344 1210.769531 501.492188 1210.863281 C 502.328125 1210.964844 503.058594 1211.476562 503.429688 1212.234375 L 505.730469 1216.902344 L 507.832031 1212.488281 C 508.855469 1210.609375 510.601562 1209.417969 512.570312 1209.167969 C 512.683594 1209.15625 512.796875 1209.148438 512.910156 1209.148438 L 522.035156 1209.238281 C 525.167969 1208.945312 528.09375 1211.082031 528.746094 1214.207031 L 529.203125 1216.414062 L 533.84375 1211.023438 C 534.492188 1210.269531 535.53125 1209.976562 536.46875 1210.277344 C 537.417969 1210.582031 538.09375 1211.417969 538.179688 1212.410156 L 544.355469 1280.441406 C 545.285156 1287.492188 540.300781 1294.125 533.25 1295.136719 C 529.691406 1295.644531 522.328125 1296.457031 511.785156 1296.457031 " fill-opacity="1" fill-rule="nonzero"/><path fill="#000000" d="M 505.386719 1285.28125 C 498.984375 1285.28125 492.050781 1284.707031 485.140625 1283.117188 C 483.808594 1282.808594 482.976562 1281.480469 483.28125 1280.148438 C 483.589844 1278.8125 484.921875 1277.988281 486.25 1278.289062 C 509.246094 1283.59375 533.304688 1276.773438 533.542969 1276.707031 C 534.859375 1276.328125 536.230469 1277.078125 536.613281 1278.394531 C 536.988281 1279.707031 536.230469 1281.078125 534.917969 1281.457031 C 534.183594 1281.675781 521.441406 1285.28125 505.386719 1285.28125 " fill-opacity="1" fill-rule="nonzero"/><path fill="#000000" d="M 499.730469 1258.867188 C 498.402344 1258.867188 497.300781 1257.816406 497.257812 1256.480469 C 497.210938 1255.109375 498.28125 1253.96875 499.648438 1253.921875 L 521.902344 1253.175781 C 523.265625 1253.144531 524.414062 1254.207031 524.460938 1255.566406 C 524.507812 1256.933594 523.433594 1258.082031 522.070312 1258.128906 L 499.816406 1258.867188 C 499.785156 1258.867188 499.757812 1258.867188 499.730469 1258.867188 " fill-opacity="1" fill-rule="nonzero"/><path fill="#000000" d="M 756.191406 1051.523438 C 724.554688 1139.019531 701.980469 1182.59375 693.300781 1198.414062 C 690.925781 1202.738281 686.191406 1205.152344 681.34375 1204.523438 L 658.800781 1201.59375 C 652.109375 1200.722656 647.460938 1194.445312 648.527344 1187.71875 C 656.75 1135.65625 689.425781 882.261719 680.722656 858.84375 L 540.691406 1190.988281 C 539.175781 1194.511719 535.722656 1196.777344 531.925781 1196.734375 L 508.269531 1196.464844 C 503 1196.402344 498.800781 1191.984375 498.9375 1186.648438 C 505.925781 917.820312 583.925781 874.5625 606.785156 746.03125 C 606.835938 745.726562 730.273438 764.207031 768.710938 743.800781 C 769.273438 743.5 792.953125 949.855469 756.191406 1051.523438 " fill-opacity="1" fill-rule="nonzero"/><path fill="#0065ff" d="M 609.363281 808.347656 C 608.136719 808.347656 607.429688 808.285156 607.375 808.28125 C 606.015625 808.148438 605.019531 806.941406 605.148438 805.574219 C 605.285156 804.214844 606.484375 803.207031 607.847656 803.347656 C 609.101562 803.46875 638.734375 805.820312 647.1875 772.730469 C 647.53125 771.410156 648.878906 770.601562 650.199219 770.945312 C 651.53125 771.289062 652.332031 772.632812 651.984375 773.953125 C 643.792969 806.039062 616.90625 808.347656 609.363281 808.347656 " fill-opacity="1" fill-rule="nonzero"/><path fill="#0065ff" d="M 762.632812 808.339844 C 757.191406 808.339844 738.34375 805.957031 732.742188 773.765625 C 732.511719 772.425781 733.410156 771.136719 734.757812 770.90625 C 736.097656 770.675781 737.386719 771.574219 737.621094 772.917969 C 743.34375 805.816406 763.207031 803.394531 763.414062 803.363281 C 764.757812 803.175781 766.023438 804.109375 766.210938 805.472656 C 766.402344 806.820312 765.460938 808.078125 764.109375 808.265625 C 764.074219 808.273438 763.535156 808.339844 762.632812 808.339844 " fill-opacity="1" fill-rule="nonzero"/><path fill="#ffffff" d="M 724.722656 501.117188 L 731.199219 467.625 C 731.660156 465.375 733.496094 463.675781 735.761719 463.417969 L 748.78125 461.917969 C 751.550781 461.597656 753.769531 459.445312 754.214844 456.660156 L 757.15625 437.980469 C 757.167969 437.949219 757.179688 437.929688 757.210938 437.910156 L 763.382812 434.53125 C 764.621094 433.859375 765.089844 432.3125 764.453125 431.0625 L 757.941406 418.195312 C 756.683594 415.695312 754.929688 401.5625 752.160156 401.703125 C 752.160156 401.703125 705.320312 385.246094 691.550781 404.859375 C 687.894531 410.054688 687.496094 416.917969 689.964844 422.78125 L 693.113281 430.261719 C 696.386719 438.042969 697.117188 446.78125 694.621094 454.847656 C 693.722656 457.71875 692.46875 460.5 690.875 463.101562 L 673.273438 490.796875 C 686.058594 497.269531 700.121094 500.75 714.417969 500.960938 L 724.722656 501.117188 " fill-opacity="1" fill-rule="nonzero"/><path fill="#000000" d="M 676.847656 489.789062 C 688.578125 495.289062 701.523438 498.296875 714.453125 498.492188 L 722.683594 498.613281 L 728.769531 467.160156 C 729.445312 463.824219 732.144531 461.34375 735.476562 460.960938 L 748.492188 459.460938 C 750.152344 459.265625 751.5 457.960938 751.769531 456.277344 L 754.714844 437.597656 C 754.828125 436.851562 755.332031 436.128906 755.992188 435.761719 L 762.199219 432.359375 C 762.242188 432.335938 762.285156 432.253906 762.242188 432.183594 L 755.738281 419.320312 C 755.199219 418.261719 754.769531 416.429688 754.066406 413.292969 C 753.492188 410.714844 752.335938 405.5 751.398438 404.058594 C 751.378906 404.054688 751.359375 404.046875 751.335938 404.035156 C 750.882812 403.882812 706.113281 388.429688 693.570312 406.28125 C 690.539062 410.609375 690.03125 416.558594 692.238281 421.820312 L 695.394531 429.304688 C 699.007812 437.890625 699.578125 447.222656 696.976562 455.582031 C 696.023438 458.675781 694.675781 461.644531 692.976562 464.398438 Z M 724.730469 503.597656 C 724.714844 503.597656 724.699219 503.597656 724.691406 503.597656 L 714.382812 503.4375 C 699.792969 503.21875 685.183594 499.613281 672.15625 493.003906 C 671.523438 492.691406 671.070312 492.128906 670.886719 491.453125 C 670.703125 490.777344 670.808594 490.058594 671.1875 489.46875 L 688.785156 461.773438 C 690.238281 459.40625 691.40625 456.8125 692.253906 454.113281 C 694.5 446.867188 693.992188 438.738281 690.839844 431.230469 L 687.683594 423.746094 C 684.808594 416.921875 685.515625 409.144531 689.523438 403.4375 C 703.714844 383.222656 747.921875 397.636719 752.636719 399.253906 C 756.097656 399.652344 757.34375 405.238281 758.898438 412.214844 C 759.304688 414.03125 759.867188 416.511719 760.152344 417.082031 L 766.660156 429.945312 C 767.914062 432.414062 767 435.382812 764.570312 436.707031 L 759.414062 439.523438 L 756.652344 457.042969 C 756.046875 460.921875 752.929688 463.9375 749.050781 464.375 L 736.046875 465.875 C 734.839844 466.011719 733.871094 466.921875 733.621094 468.128906 L 727.152344 501.589844 C 726.929688 502.75 725.90625 503.597656 724.730469 503.597656 " fill-opacity="1" fill-rule="nonzero"/><path fill="#000000" d="M 715.632812 422.53125 C 713.226562 416.503906 709.46875 414.238281 710.171875 410.816406 C 710.597656 408.757812 712.371094 407.453125 713.382812 406.71875 C 718.386719 403.054688 724.980469 405.289062 738.214844 407.804688 C 754.640625 410.929688 756.511719 411.421875 759.613281 410.183594 C 767.488281 407.046875 771.964844 397.257812 772.3125 389.21875 C 772.414062 386.960938 772.609375 374.972656 762.53125 368.785156 C 755.242188 364.324219 745.5 364.660156 737.625 369.609375 C 736.945312 367.277344 735.507812 364.003906 732.386719 362.394531 C 724.957031 358.566406 713.898438 367.148438 710.019531 370.148438 C 706.441406 372.929688 700.054688 378.722656 695.484375 388.921875 C 694.015625 388.09375 688.535156 385.226562 682.558594 387.15625 C 673.671875 390.019531 671.488281 400.976562 671.300781 402.019531 C 669.074219 414.121094 678.941406 424.695312 686.390625 432.671875 C 690.492188 437.070312 692.652344 438.75 695.066406 440.375 C 696.488281 441.332031 698.332031 441.402344 699.828125 440.558594 C 699.851562 440.554688 699.882812 440.535156 699.90625 440.523438 C 701.878906 439.425781 702.535156 436.875 701.359375 434.945312 L 700.972656 434.324219 C 699.554688 432.011719 698.582031 429.421875 698.28125 426.71875 C 698.058594 424.550781 698.222656 422.285156 699.601562 421.117188 C 701.820312 419.234375 705.601562 420.480469 706.132812 420.652344 C 708.914062 421.566406 710.644531 423.636719 711.71875 425.613281 C 712.855469 427.722656 716.699219 425.203125 715.632812 422.53125 " fill-opacity="1" fill-rule="nonzero"/><path fill="#2b7fff" d="M 750.539062 367.359375 L 790.476562 358.742188 C 797.785156 357.164062 804.355469 366.4375 801.734375 374.949219 C 799.957031 380.746094 794.351562 386.996094 780.917969 392.109375 C 745.511719 405.589844 723.007812 411.109375 723.007812 411.109375 L 750.539062 367.359375 " fill-opacity="1" fill-rule="nonzero"/><path fill="#000000" d="M 752.074219 369.554688 L 728.464844 407.082031 C 737.410156 404.574219 755.730469 399.054688 780.035156 389.800781 C 790.972656 385.632812 797.480469 380.398438 799.375 374.226562 C 800.507812 370.515625 799.574219 366.285156 796.96875 363.449219 C 795.945312 362.339844 793.816406 360.554688 790.996094 361.15625 Z M 723.007812 413.582031 C 722.222656 413.582031 721.476562 413.214844 721.003906 412.5625 C 720.414062 411.746094 720.382812 410.640625 720.917969 409.792969 L 748.445312 366.03125 C 748.796875 365.476562 749.363281 365.074219 750.015625 364.933594 L 789.949219 356.320312 C 793.761719 355.496094 797.652344 356.875 800.617188 360.105469 C 804.375 364.210938 805.75 370.324219 804.101562 375.679688 C 801.734375 383.386719 794.222656 389.691406 781.792969 394.425781 C 746.660156 407.804688 723.824219 413.457031 723.597656 413.515625 C 723.402344 413.558594 723.214844 413.582031 723.007812 413.582031 " fill-opacity="1" fill-rule="nonzero"/><path fill="#2b7fff" d="M 686.046875 426.160156 C 686.046875 426.160156 651.015625 391.371094 681.046875 365.773438 C 719.902344 332.667969 743.496094 353.464844 753.707031 367.808594 C 757.746094 373.480469 758.101562 380.671875 754.53125 386.667969 L 754.425781 386.851562 C 748.25 397.222656 738.351562 405.457031 726.347656 410.210938 L 686.046875 426.160156 " fill-opacity="1" fill-rule="nonzero"/><path fill="#000000" d="M 719.992188 350.519531 C 708.554688 350.519531 696.023438 356.273438 682.65625 367.65625 C 675.488281 373.761719 671.695312 380.949219 671.382812 389 C 670.785156 404.421875 682.933594 419.078125 686.703125 423.234375 L 725.441406 407.902344 C 736.886719 403.363281 746.429688 395.441406 752.300781 385.582031 L 752.410156 385.390625 C 755.441406 380.308594 755.160156 374.113281 751.699219 369.234375 C 746.34375 361.714844 737.195312 352.402344 724.070312 350.773438 C 722.730469 350.609375 721.367188 350.519531 719.992188 350.519531 Z M 686.054688 428.628906 C 685.40625 428.628906 684.785156 428.382812 684.300781 427.914062 C 683.539062 427.152344 665.660156 409.15625 666.4375 388.824219 C 666.800781 379.328125 671.179688 370.9375 679.445312 363.886719 C 695.515625 350.195312 710.746094 344.136719 724.679688 345.867188 C 739.589844 347.707031 749.800781 358.035156 755.726562 366.363281 C 760.351562 372.867188 760.707031 381.125 756.660156 387.929688 L 756.550781 388.113281 C 750.125 398.90625 739.730469 407.570312 727.25 412.503906 L 686.964844 428.453125 C 686.664062 428.574219 686.351562 428.628906 686.054688 428.628906 " fill-opacity="1" fill-rule="nonzero"/><path fill="#000000" d="M 683.632812 427.21875 L 694.011719 423.007812 C 693.675781 421.957031 692.636719 418.484375 692.121094 417.308594 C 684.621094 399.964844 676.484375 402.9375 672.015625 406.242188 C 676.371094 417.292969 683.632812 427.21875 683.632812 427.21875 " fill-opacity="1" fill-rule="nonzero"/><path fill="#ffffff" d="M 812.15625 658.082031 L 842.761719 631.652344 L 864.023438 607.765625 C 866.894531 604.527344 871.847656 604.199219 875.140625 607.039062 C 878.496094 609.929688 878.847656 615.011719 875.914062 618.324219 L 863.410156 632.445312 C 861.675781 634.410156 862.601562 637.511719 865.125 638.203125 C 869.039062 639.277344 873.105469 639.636719 877.144531 639.25 C 884.472656 638.539062 897.136719 636.984375 909.445312 633.902344 C 915.21875 632.449219 919.972656 637.867188 916.3125 642.566406 L 882.972656 662.175781 C 876.375 666.050781 868.777344 667.703125 861.25 667.050781 C 857.992188 666.769531 854.152344 666.328125 850.050781 665.804688 C 848.003906 665.542969 844.890625 671.742188 837.933594 678.347656 C 828.671875 687.140625 814.75 693.585938 814.75 693.585938 L 812.15625 658.082031 " fill-opacity="1" fill-rule="nonzero"/><path fill="#000000" d="M 813.515625 699.195312 C 812.574219 699.195312 811.679688 698.660156 811.269531 697.746094 C 810.691406 696.503906 811.246094 695.042969 812.484375 694.476562 C 829.390625 686.75 848.757812 663.78125 848.953125 663.550781 C 849.539062 662.855469 850.457031 662.535156 851.34375 662.714844 L 859.023438 664.273438 C 866.785156 665.566406 874.867188 664.074219 881.714844 660.039062 L 914.597656 640.699219 C 915.257812 639.679688 915.292969 638.679688 914.703125 637.777344 C 913.964844 636.644531 912.238281 635.753906 910.042969 636.300781 C 897.296875 639.496094 884.105469 641.066406 877.378906 641.714844 C 873.042969 642.132812 868.707031 641.753906 864.476562 640.585938 C 862.460938 640.035156 860.898438 638.511719 860.300781 636.5 C 859.703125 634.5 860.171875 632.367188 861.554688 630.808594 L 874.058594 616.683594 C 875.03125 615.578125 875.515625 614.167969 875.417969 612.691406 C 875.3125 611.214844 874.644531 609.878906 873.523438 608.914062 C 871.273438 606.972656 867.839844 607.195312 865.867188 609.414062 L 840.253906 638.203125 C 839.578125 638.867188 826.222656 652.03125 813.484375 660.164062 C 812.335938 660.898438 810.804688 660.5625 810.066406 659.410156 C 809.332031 658.261719 809.667969 656.726562 810.820312 656 C 823.105469 648.136719 836.523438 634.925781 836.65625 634.796875 L 862.167969 606.121094 C 865.925781 601.898438 872.46875 601.46875 876.753906 605.164062 C 878.886719 606.996094 880.164062 609.546875 880.355469 612.359375 C 880.542969 615.160156 879.625 617.863281 877.765625 619.960938 L 865.261719 634.085938 C 864.921875 634.46875 864.976562 634.878906 865.042969 635.089844 C 865.105469 635.304688 865.292969 635.679688 865.785156 635.820312 C 869.429688 636.820312 873.171875 637.144531 876.90625 636.785156 C 883.492188 636.152344 896.410156 634.617188 908.839844 631.503906 C 912.792969 630.511719 916.820312 631.953125 918.851562 635.074219 C 920.65625 637.847656 920.433594 641.304688 918.261719 644.089844 C 918.066406 644.335938 917.835938 644.535156 917.566406 644.695312 L 884.226562 664.3125 C 876.375 668.929688 867.113281 670.648438 858.128906 669.144531 L 851.785156 667.851562 C 847.550781 672.734375 830.441406 691.710938 814.546875 698.972656 C 814.210938 699.128906 813.859375 699.195312 813.515625 699.195312 " fill-opacity="1" fill-rule="nonzero"/><path fill="#000000" d="M 90.558594 203.300781 C 89.921875 203.300781 89.292969 203.0625 88.808594 202.574219 L 81.621094 195.398438 C 80.652344 194.429688 80.652344 192.859375 81.621094 191.890625 C 82.585938 190.925781 84.152344 190.925781 85.117188 191.890625 L 92.308594 199.070312 C 93.277344 200.035156 93.277344 201.609375 92.308594 202.574219 C 91.828125 203.0625 91.191406 203.300781 90.558594 203.300781 " fill-opacity="1" fill-rule="nonzero"/><path fill="#000000" d="M 115.722656 228.429688 C 115.089844 228.429688 114.453125 228.191406 113.972656 227.703125 L 106.785156 220.519531 C 105.816406 219.5625 105.816406 217.992188 106.78125 217.023438 C 107.746094 216.058594 109.316406 216.058594 110.28125 217.023438 L 117.472656 224.207031 C 118.4375 225.175781 118.4375 226.734375 117.472656 227.703125 C 116.992188 228.191406 116.355469 228.429688 115.722656 228.429688 " fill-opacity="1" fill-rule="nonzero"/><path fill="#000000" d="M 83.371094 228.429688 C 82.738281 228.429688 82.105469 228.191406 81.621094 227.703125 C 80.652344 226.734375 80.652344 225.175781 81.621094 224.207031 L 88.8125 217.023438 C 89.777344 216.058594 91.34375 216.058594 92.3125 217.023438 C 93.277344 217.992188 93.277344 219.5625 92.3125 220.519531 L 85.121094 227.703125 C 84.640625 228.191406 84.007812 228.429688 83.371094 228.429688 " fill-opacity="1" fill-rule="nonzero"/><path fill="#000000" d="M 108.53125 203.300781 C 107.898438 203.300781 107.261719 203.0625 106.78125 202.574219 C 105.816406 201.609375 105.816406 200.035156 106.78125 199.070312 L 113.96875 191.890625 C 114.9375 190.925781 116.503906 190.925781 117.46875 191.890625 C 118.4375 192.859375 118.433594 194.429688 117.46875 195.398438 L 110.28125 202.574219 C 109.796875 203.0625 109.164062 203.300781 108.53125 203.300781 " fill-opacity="1" fill-rule="nonzero"/><path fill="#caddff" d="M 1264.457031 92.804688 C 1264.457031 105.035156 1254.550781 114.945312 1242.316406 114.945312 C 1230.089844 114.945312 1220.164062 105.035156 1220.164062 92.804688 C 1220.164062 80.582031 1230.089844 70.664062 1242.316406 70.664062 C 1254.550781 70.664062 1264.457031 80.582031 1264.457031 92.804688 " fill-opacity="1" fill-rule="nonzero"/></svg>